<svg width="109" height="49" viewBox="0 0 109 49" fill="none" xmlns="http://www.w3.org/2000/svg">
<path d="M58.4823 32.2726L76.8817 48.5511C76.9873 48.6497 77.126 48.7052 77.2704 48.7066H108.017C108.138 48.706 108.256 48.6689 108.355 48.6001C108.455 48.5314 108.531 48.4343 108.574 48.3214C108.618 48.2086 108.626 48.0853 108.598 47.9678C108.57 47.8503 108.507 47.744 108.417 47.6628L74.6498 17.7818C74.5388 17.6857 74.3969 17.6328 74.2501 17.6328C74.1033 17.6328 73.9613 17.6857 73.8503 17.7818L58.4823 31.3732C58.4169 31.4284 58.3643 31.4973 58.3282 31.5749C58.2921 31.6526 58.2734 31.7372 58.2734 31.8229C58.2734 31.9085 58.2921 31.9931 58.3282 32.0708C58.3643 32.1485 58.4823 32.2726 58.4823 32.2726Z" fill="white"/>
<path d="M53.9515 0.137056L0.196809 47.6624C0.107307 47.7435 0.0444145 47.8498 0.0163726 47.9674C-0.0116692 48.0849 -0.00355189 48.2082 0.0396609 48.321C0.0828736 48.4338 0.159166 48.531 0.258539 48.5997C0.357913 48.6684 0.475731 48.7055 0.596555 48.7061H31.3437C31.4915 48.7054 31.6339 48.65 31.7434 48.5507L70.0857 14.6278C70.1492 14.5726 70.2002 14.5044 70.2351 14.4277C70.27 14.3511 70.2881 14.2679 70.2881 14.1837C70.2881 14.0995 70.27 14.0162 70.2351 13.9396C70.2002 13.863 70.1492 13.7948 70.0857 13.7395L54.7066 0.137056C54.6007 0.0485123 54.4671 0 54.329 0C54.191 0 54.0574 0.0485123 53.9515 0.137056Z" fill="white"/>
</svg>
